<svg width="40" height="40" viewBox="0 0 40 40" fill="none" xmlns="http://www.w3.org/2000/svg">
<g id="Avatar">
<rect x="0.416667" y="0.416667" width="39.1667" height="39.1667" rx="19.5833" fill="white"/>
<rect x="0.416667" y="0.416667" width="39.1667" height="39.1667" rx="19.5833" stroke="#EDEBEB" stroke-width="0.833333"/>
<g id="Artboard 69">
<path id="Path" d="M33.3505 31.6492C25.486 37.7047 14.5165 37.6562 6.70581 31.5316L12.4305 28.8481C12.7032 28.7199 12.9648 28.5696 13.2129 28.3986C13.2882 28.3469 13.3635 28.2928 13.4352 28.2363C14.0583 27.7596 14.5711 27.154 14.9388 26.461C15.2167 25.9285 15.4013 25.3523 15.4846 24.7575C15.5421 24.3715 15.5712 23.9818 15.5717 23.5916C15.5717 22.9186 15.5352 22.2457 15.5282 21.5716C15.5235 21.1982 15.5195 20.8253 15.5164 20.4528L15.7517 20.5704L16.3635 20.8869L16.647 20.9351L19.927 21.4928L23.5882 22.1163L23.6988 25.881L23.7352 27.1116L23.7529 27.7092V27.7481L25.1764 28.3269L33.3505 31.6492Z" fill="#DE8276"/>
<path id="Path_2" d="M23.7294 27.514C23.3251 27.5835 22.9091 27.5191 22.5447 27.3304L15.5247 21.5916C15.5165 21.3257 15.5094 21.6046 15.5059 21.3387C15.5012 20.9653 15.4973 20.5924 15.4941 20.2198L15.7294 20.3375L16.3412 20.654L16.6247 20.7022L19.9047 21.2598L23.5659 21.8834L23.6765 25.6481L23.713 26.8787L23.7306 27.4763V27.5151L23.7294 27.514Z" fill="#A76962"/>
<path id="Path_3" d="M27.3528 17.2846C27.1699 17.4759 26.9694 17.6496 26.754 17.8034C25.5305 18.6893 23.8975 18.9799 22.5022 19.4575C21.914 19.6587 15.5352 21.4716 15.5352 21.8657C15.5352 21.7799 14.9105 21.1599 14.1234 20.4069C11.4088 17.807 10.5038 13.8399 11.8222 10.3199C13.1058 6.94692 17.1975 4.62222 20.6246 4.08457C22.2563 3.82928 24.1928 3.68692 25.6999 4.46928C26.4705 4.87045 27.1116 5.45516 27.6999 6.10339C27.8834 6.3081 28.0614 6.51712 28.234 6.73045C28.3081 6.81986 28.381 6.90928 28.4528 6.99986C31.1316 10.3646 30.1822 14.3116 27.3528 17.2846Z" fill="url(#paint0_linear_1_2578)"/>
<path id="Path_4" d="M27.3529 17.2845C27.17 17.4758 26.9695 17.6495 26.7541 17.8033C26.7039 17.7158 26.6587 17.6255 26.6188 17.5327C26.3082 16.8269 26.1482 16.061 26.0306 15.2975C25.8474 14.1863 25.7221 13.0663 25.6553 11.9422C25.5482 10.1375 24.7776 9.24216 26.3106 7.8351C26.8622 7.32952 27.5192 6.95262 28.2341 6.73157C28.3082 6.82098 28.3812 6.91039 28.4529 7.00098C31.1318 10.3645 30.1823 14.3116 27.3529 17.2845Z" fill="url(#paint1_linear_1_2578)"/>
<ellipse id="Oval" cx="14.3586" cy="17.161" rx="2" ry="2" fill="#E18477"/>
<ellipse id="Oval_2" cx="14.994" cy="17.1611" rx="1.79059" ry="1.79059" fill="#A76962"/>
<path id="Path_5" d="M15.1436 15.2646C15.2412 16.5422 15.2377 18.1022 15.2718 18.5587C15.3604 19.703 15.4483 20.847 15.5353 21.9905L23.3518 26.5564C24.4736 26.9757 25.7305 26.4741 26.2553 25.3975C27.38 23.094 29.1847 19.4564 28.9471 18.1034C28.5941 16.1034 27.653 15.3975 27.653 15.3975L28.0447 13.0517C28.4412 10.667 27.6236 8.40931 24.8377 8.14813C24.2494 8.09401 23.5941 8.20578 23.2447 8.67519C22.3036 9.94107 22.8459 11.4987 21.433 12.6752C19.7177 14.0905 15.8906 14.7081 14.9941 13.5658C14.9941 13.5658 15.0765 14.374 15.1436 15.2646Z" fill="#DE8276"/>
<path id="Path_6" d="M21.0095 20.2551C21.5748 20.8864 22.3497 21.2914 23.1907 21.3951" stroke="#00214E" stroke-width="0.736961"/>
<path id="Path_7" d="M23.7878 14.701C23.7784 14.7422 25.3596 18.9516 25.3596 18.9516L23.249 19.054" stroke="#00214E" stroke-width="0.736961"/>
<path id="Path_8" d="M18.7908 13.8846C19.8798 13.6593 21.0001 13.6275 22.1002 13.7905" stroke="#00214E" stroke-width="0.736961"/>
<path id="Path_9" d="M25.7378 13.8999C26.4101 13.7432 27.1032 13.6952 27.7907 13.7575" stroke="#00214E" stroke-width="0.736961"/>
<path id="Path_10" d="M33.3505 31.6493C25.486 37.7048 14.5165 37.6563 6.70581 31.5317L12.4305 28.8482C12.7032 28.72 12.9648 28.5697 13.2129 28.3987C13.2882 28.347 13.3635 28.2929 13.4352 28.2364C14.0583 27.7597 14.5711 27.1541 14.9388 26.4611C15.2167 25.9286 15.4013 25.3524 15.4846 24.7576C15.5677 24.8381 15.6549 24.9143 15.7458 24.9858C16.4672 25.5192 17.25 25.964 18.0776 26.3105C18.4793 26.4781 18.8902 26.623 19.3082 26.7446C20.5675 27.1118 21.8823 27.2509 23.1905 27.1552C23.3717 27.1411 23.554 27.1235 23.7352 27.1105L23.7529 27.7082V27.747L25.1764 28.3258L33.3505 31.6493Z" fill="#00214E"/>
<path id="Path_11" d="M20.3941 15.2069C21.1117 15.2069 21.1117 16.3104 20.3941 16.3163H20.3611C19.6423 16.3163 19.6423 15.2128 20.3611 15.2069H20.3929H20.3941Z" fill="#00214E"/>
<path id="Path_12" d="M26.2917 15.0433C26.9576 15.0492 26.9576 16.0669 26.2917 16.0727H26.2611C25.5952 16.0727 25.5952 15.0492 26.2611 15.0433H26.2917Z" fill="#00214E"/>
</g>
</g>
<defs>
<linearGradient id="paint0_linear_1_2578" x1="11.2175" y1="21.8703" x2="30.0387" y2="21.8703" gradientUnits="userSpaceOnUse">
<stop stop-color="#16243F"/>
<stop offset="1" stop-color="#6878B1"/>
</linearGradient>
<linearGradient id="paint1_linear_1_2578" x1="22.3023" y1="14.0098" x2="30.1938" y2="16.2487" gradientUnits="userSpaceOnUse">
<stop stop-color="#16243F"/>
<stop offset="1" stop-color="#6878B1"/>
</linearGradient>
</defs>
</svg>
