<svg width="34" height="35" viewBox="0 0 34 35" fill="none" xmlns="http://www.w3.org/2000/svg">
<path d="M3.88462 6.76941C3.25218 6.76941 2.64564 7.02064 2.19844 7.46784C1.75124 7.91504 1.5 8.52157 1.5 9.15401V30.6154C1.5 31.2478 1.75124 31.8543 2.19844 32.3015C2.64564 32.7487 3.25218 33 3.88462 33H30.1154C30.7478 33 31.3544 32.7487 31.8016 32.3015C32.2488 31.8543 32.5 31.2478 32.5 30.6154V9.15401C32.5 8.52157 32.2488 7.91504 31.8016 7.46784C31.3544 7.02064 30.7478 6.76941 30.1154 6.76941H25.3462" stroke="#2E1619" stroke-width="2.21429" stroke-linecap="round" stroke-linejoin="round"/>
<path d="M8.65405 2V11.5384" stroke="#2E1619" stroke-width="2.21429" stroke-linecap="round" stroke-linejoin="round"/>
<path d="M25.3464 2V11.5384" stroke="#2E1619" stroke-width="2.21429" stroke-linecap="round" stroke-linejoin="round"/>
<path d="M8.65405 6.76941H20.5771" stroke="#2E1619" stroke-width="2.21429" stroke-linecap="round" stroke-linejoin="round"/>
<path d="M8.65373 19.8849C9.31222 19.8849 9.84603 19.3511 9.84603 18.6926C9.84603 18.0341 9.31222 17.5003 8.65373 17.5003C7.99524 17.5003 7.46143 18.0341 7.46143 18.6926C7.46143 19.3511 7.99524 19.8849 8.65373 19.8849Z" stroke="#2E1619" stroke-width="2.21429" stroke-linecap="round" stroke-linejoin="round"/>
<path d="M17.0004 19.8849C17.6589 19.8849 18.1927 19.3511 18.1927 18.6926C18.1927 18.0341 17.6589 17.5003 17.0004 17.5003C16.3419 17.5003 15.8081 18.0341 15.8081 18.6926C15.8081 19.3511 16.3419 19.8849 17.0004 19.8849Z" stroke="#2E1619" stroke-width="2.21429" stroke-linecap="round" stroke-linejoin="round"/>
<path d="M25.3459 19.8849C26.0044 19.8849 26.5382 19.3511 26.5382 18.6926C26.5382 18.0341 26.0044 17.5003 25.3459 17.5003C24.6874 17.5003 24.1536 18.0341 24.1536 18.6926C24.1536 19.3511 24.6874 19.8849 25.3459 19.8849Z" stroke="#2E1619" stroke-width="2.21429" stroke-linecap="round" stroke-linejoin="round"/>
<path d="M8.65373 27.0384C9.31222 27.0384 9.84603 26.5046 9.84603 25.8461C9.84603 25.1876 9.31222 24.6538 8.65373 24.6538C7.99524 24.6538 7.46143 25.1876 7.46143 25.8461C7.46143 26.5046 7.99524 27.0384 8.65373 27.0384Z" stroke="#2E1619" stroke-width="2.21429" stroke-linecap="round" stroke-linejoin="round"/>
</svg>
