<svg width="36" height="36" viewBox="0 0 36 36" fill="none" xmlns="http://www.w3.org/2000/svg">
<mask id="path-1-inside-1_1_2625" fill="white">
<path d="M29.6854 18.7263C29.4482 18.4564 29.3174 18.1093 29.3174 17.75C29.3174 17.3907 29.4482 17.0437 29.6854 16.7738L31.5787 14.6438C31.7873 14.4111 31.9169 14.1182 31.9488 13.8073C31.9807 13.4964 31.9132 13.1834 31.7562 12.9132L28.7979 7.79525C28.6424 7.52533 28.4057 7.31138 28.1215 7.18389C27.8373 7.0564 27.5201 7.02188 27.2152 7.08525L24.4343 7.64733C24.0805 7.72044 23.7121 7.66151 23.3987 7.48166C23.0854 7.30181 22.8487 7.01348 22.7333 6.67108L21.831 3.9642C21.7318 3.67041 21.5427 3.41523 21.2905 3.23474C21.0384 3.05425 20.7359 2.95757 20.4258 2.95837H14.5091C14.1866 2.94154 13.8674 3.03074 13.6003 3.21237C13.3332 3.39399 13.1329 3.65805 13.0299 3.9642L12.2016 6.67108C12.0862 7.01348 11.8495 7.30181 11.5362 7.48166C11.2228 7.66151 10.8544 7.72044 10.5006 7.64733L7.64578 7.08525C7.35668 7.04439 7.06195 7.09001 6.79873 7.21636C6.53551 7.34271 6.31557 7.54413 6.16662 7.79525L3.20828 12.9132C3.04729 13.1804 2.9749 13.4916 3.00147 13.8025C3.02803 14.1133 3.1522 14.4078 3.3562 14.6438L5.23474 16.7738C5.47188 17.0437 5.60266 17.3907 5.60266 17.75C5.60266 18.1093 5.47188 18.4564 5.23474 18.7263L3.3562 20.8563C3.1522 21.0923 3.02803 21.3868 3.00147 21.6976C2.9749 22.0084 3.04729 22.3197 3.20828 22.5869L6.16662 27.7048C6.32207 27.9747 6.55877 28.1887 6.84297 28.3162C7.12716 28.4437 7.44436 28.4782 7.74932 28.4148L10.5302 27.8527C10.884 27.7796 11.2524 27.8386 11.5657 28.0184C11.8791 28.1983 12.1158 28.4866 12.2312 28.829L13.1335 31.5359C13.2364 31.842 13.4367 32.1061 13.7038 32.2877C13.9709 32.4693 14.2901 32.5585 14.6127 32.5417H20.5293C20.8394 32.5425 21.1419 32.4458 21.3941 32.2653C21.6462 32.0848 21.8353 31.8297 21.9345 31.5359L22.8368 28.829C22.9522 28.4866 23.1889 28.1983 23.5023 28.0184C23.8157 27.8386 24.184 27.7796 24.5379 27.8527L27.3187 28.4148C27.6237 28.4782 27.9409 28.4437 28.2251 28.3162C28.5093 28.1887 28.746 27.9747 28.9014 27.7048L31.8597 22.5869C32.0168 22.3167 32.0842 22.0037 32.0523 21.6927C32.0204 21.3818 31.8909 21.089 31.6822 20.8563L29.6854 18.7263ZM27.4814 20.7084L28.6647 22.0396L26.7714 25.3234L25.026 24.9684C23.9607 24.7506 22.8525 24.9316 21.9117 25.4769C20.971 26.0223 20.2633 26.894 19.9229 27.9267L19.3608 29.5834H15.5741L15.0416 27.8971C14.7012 26.8644 13.9935 25.9927 13.0527 25.4473C12.112 24.902 11.0038 24.721 9.93849 24.9388L8.19307 25.2938L6.27016 22.0248L7.45349 20.6936C8.18117 19.88 8.58347 18.8268 8.58347 17.7352C8.58347 16.6437 8.18117 15.5905 7.45349 14.7769L6.27016 13.4457L8.16349 10.1915L9.90891 10.5465C10.9742 10.7643 12.0824 10.5833 13.0232 10.038C13.9639 9.49262 14.6716 8.62086 15.012 7.58816L15.5741 5.9167H19.3608L19.9229 7.60295C20.2633 8.63565 20.971 9.50741 21.9117 10.0527C22.8525 10.5981 23.9607 10.7791 25.026 10.5613L26.7714 10.2063L28.6647 13.49L27.4814 14.8213C26.7619 15.633 26.3646 16.6801 26.3646 17.7648C26.3646 18.8495 26.7619 19.8967 27.4814 20.7084ZM17.4674 11.8334C16.2972 11.8334 15.1533 12.1804 14.1803 12.8305C13.2073 13.4806 12.449 14.4047 12.0012 15.4858C11.5533 16.567 11.4362 17.7566 11.6645 18.9043C11.8928 20.052 12.4563 21.1063 13.2837 21.9338C14.1112 22.7612 15.1654 23.3247 16.3132 23.553C17.4609 23.7813 18.6505 23.6641 19.7317 23.2163C20.8128 22.7685 21.7368 22.0102 22.387 21.0372C23.0371 20.0642 23.3841 18.9202 23.3841 17.75C23.3841 16.1808 22.7608 14.6759 21.6512 13.5663C20.5416 12.4567 19.0366 11.8334 17.4674 11.8334ZM17.4674 20.7084C16.8823 20.7084 16.3104 20.5349 15.8239 20.2098C15.3374 19.8847 14.9582 19.4227 14.7343 18.8821C14.5104 18.3416 14.4518 17.7468 14.566 17.1729C14.6801 16.599 14.9619 16.0719 15.3756 15.6582C15.7893 15.2445 16.3164 14.9627 16.8903 14.8485C17.4642 14.7344 18.059 14.793 18.5996 15.0169C19.1401 15.2408 19.6021 15.62 19.9272 16.1065C20.2523 16.593 20.4258 17.1649 20.4258 17.75C20.4258 18.5346 20.1141 19.2871 19.5593 19.8419C19.0045 20.3967 18.252 20.7084 17.4674 20.7084Z"/>
</mask>
<path d="M29.6854 18.7263C29.4482 18.4564 29.3174 18.1093 29.3174 17.75C29.3174 17.3907 29.4482 17.0437 29.6854 16.7738L31.5787 14.6438C31.7873 14.4111 31.9169 14.1182 31.9488 13.8073C31.9807 13.4964 31.9132 13.1834 31.7562 12.9132L28.7979 7.79525C28.6424 7.52533 28.4057 7.31138 28.1215 7.18389C27.8373 7.0564 27.5201 7.02188 27.2152 7.08525L24.4343 7.64733C24.0805 7.72044 23.7121 7.66151 23.3987 7.48166C23.0854 7.30181 22.8487 7.01348 22.7333 6.67108L21.831 3.9642C21.7318 3.67041 21.5427 3.41523 21.2905 3.23474C21.0384 3.05425 20.7359 2.95757 20.4258 2.95837H14.5091C14.1866 2.94154 13.8674 3.03074 13.6003 3.21237C13.3332 3.39399 13.1329 3.65805 13.0299 3.9642L12.2016 6.67108C12.0862 7.01348 11.8495 7.30181 11.5362 7.48166C11.2228 7.66151 10.8544 7.72044 10.5006 7.64733L7.64578 7.08525C7.35668 7.04439 7.06195 7.09001 6.79873 7.21636C6.53551 7.34271 6.31557 7.54413 6.16662 7.79525L3.20828 12.9132C3.04729 13.1804 2.9749 13.4916 3.00147 13.8025C3.02803 14.1133 3.1522 14.4078 3.3562 14.6438L5.23474 16.7738C5.47188 17.0437 5.60266 17.3907 5.60266 17.75C5.60266 18.1093 5.47188 18.4564 5.23474 18.7263L3.3562 20.8563C3.1522 21.0923 3.02803 21.3868 3.00147 21.6976C2.9749 22.0084 3.04729 22.3197 3.20828 22.5869L6.16662 27.7048C6.32207 27.9747 6.55877 28.1887 6.84297 28.3162C7.12716 28.4437 7.44436 28.4782 7.74932 28.4148L10.5302 27.8527C10.884 27.7796 11.2524 27.8386 11.5657 28.0184C11.8791 28.1983 12.1158 28.4866 12.2312 28.829L13.1335 31.5359C13.2364 31.842 13.4367 32.1061 13.7038 32.2877C13.9709 32.4693 14.2901 32.5585 14.6127 32.5417H20.5293C20.8394 32.5425 21.1419 32.4458 21.3941 32.2653C21.6462 32.0848 21.8353 31.8297 21.9345 31.5359L22.8368 28.829C22.9522 28.4866 23.1889 28.1983 23.5023 28.0184C23.8157 27.8386 24.184 27.7796 24.5379 27.8527L27.3187 28.4148C27.6237 28.4782 27.9409 28.4437 28.2251 28.3162C28.5093 28.1887 28.746 27.9747 28.9014 27.7048L31.8597 22.5869C32.0168 22.3167 32.0842 22.0037 32.0523 21.6927C32.0204 21.3818 31.8909 21.089 31.6822 20.8563L29.6854 18.7263ZM27.4814 20.7084L28.6647 22.0396L26.7714 25.3234L25.026 24.9684C23.9607 24.7506 22.8525 24.9316 21.9117 25.4769C20.971 26.0223 20.2633 26.894 19.9229 27.9267L19.3608 29.5834H15.5741L15.0416 27.8971C14.7012 26.8644 13.9935 25.9927 13.0527 25.4473C12.112 24.902 11.0038 24.721 9.93849 24.9388L8.19307 25.2938L6.27016 22.0248L7.45349 20.6936C8.18117 19.88 8.58347 18.8268 8.58347 17.7352C8.58347 16.6437 8.18117 15.5905 7.45349 14.7769L6.27016 13.4457L8.16349 10.1915L9.90891 10.5465C10.9742 10.7643 12.0824 10.5833 13.0232 10.038C13.9639 9.49262 14.6716 8.62086 15.012 7.58816L15.5741 5.9167H19.3608L19.9229 7.60295C20.2633 8.63565 20.971 9.50741 21.9117 10.0527C22.8525 10.5981 23.9607 10.7791 25.026 10.5613L26.7714 10.2063L28.6647 13.49L27.4814 14.8213C26.7619 15.633 26.3646 16.6801 26.3646 17.7648C26.3646 18.8495 26.7619 19.8967 27.4814 20.7084ZM17.4674 11.8334C16.2972 11.8334 15.1533 12.1804 14.1803 12.8305C13.2073 13.4806 12.449 14.4047 12.0012 15.4858C11.5533 16.567 11.4362 17.7566 11.6645 18.9043C11.8928 20.052 12.4563 21.1063 13.2837 21.9338C14.1112 22.7612 15.1654 23.3247 16.3132 23.553C17.4609 23.7813 18.6505 23.6641 19.7317 23.2163C20.8128 22.7685 21.7368 22.0102 22.387 21.0372C23.0371 20.0642 23.3841 18.9202 23.3841 17.75C23.3841 16.1808 22.7608 14.6759 21.6512 13.5663C20.5416 12.4567 19.0366 11.8334 17.4674 11.8334ZM17.4674 20.7084C16.8823 20.7084 16.3104 20.5349 15.8239 20.2098C15.3374 19.8847 14.9582 19.4227 14.7343 18.8821C14.5104 18.3416 14.4518 17.7468 14.566 17.1729C14.6801 16.599 14.9619 16.0719 15.3756 15.6582C15.7893 15.2445 16.3164 14.9627 16.8903 14.8485C17.4642 14.7344 18.059 14.793 18.5996 15.0169C19.1401 15.2408 19.6021 15.62 19.9272 16.1065C20.2523 16.593 20.4258 17.1649 20.4258 17.75C20.4258 18.5346 20.1141 19.2871 19.5593 19.8419C19.0045 20.3967 18.252 20.7084 17.4674 20.7084Z" stroke="#2E1619" stroke-width="2.95833" mask="url(#path-1-inside-1_1_2625)"/>
</svg>
