<svg width="104" height="20" viewBox="0 0 104 20" fill="none" xmlns="http://www.w3.org/2000/svg">
<path d="M18.368 2.32V19H15.632V7.576L10.544 19H8.648L3.536 7.576V19H0.8V2.32H3.752L9.608 15.4L15.44 2.32H18.368ZM34.0841 12.064C34.0841 12.56 34.0521 13.008 33.9881 13.408H23.8841C23.9641 14.464 24.3561 15.312 25.0601 15.952C25.7641 16.592 26.6281 16.912 27.6521 16.912C29.1241 16.912 30.1641 16.296 30.7721 15.064H33.7241C33.3241 16.28 32.5961 17.28 31.5401 18.064C30.5001 18.832 29.2041 19.216 27.6521 19.216C26.3881 19.216 25.2521 18.936 24.2441 18.376C23.2521 17.8 22.4681 17 21.8921 15.976C21.3321 14.936 21.0521 13.736 21.0521 12.376C21.0521 11.016 21.3241 9.824 21.8681 8.8C22.4281 7.76 23.2041 6.96 24.1961 6.4C25.2041 5.84 26.3561 5.56 27.6521 5.56C28.9001 5.56 30.0121 5.832 30.9881 6.376C31.9641 6.92 32.7241 7.688 33.2681 8.68C33.8121 9.656 34.0841 10.784 34.0841 12.064ZM31.2281 11.2C31.2121 10.192 30.8521 9.384 30.1481 8.776C29.4441 8.168 28.5721 7.864 27.5321 7.864C26.5881 7.864 25.7801 8.168 25.1081 8.776C24.4361 9.368 24.0361 10.176 23.9081 11.2H31.2281ZM35.8646 12.328C35.8646 11 36.1366 9.824 36.6806 8.8C37.2406 7.776 37.9926 6.984 38.9366 6.424C39.8966 5.848 40.9606 5.56 42.1286 5.56C42.9926 5.56 43.8406 5.752 44.6726 6.136C45.5206 6.504 46.1926 7 46.6886 7.624V1.24H49.4486V19H46.6886V17.008C46.2406 17.648 45.6166 18.176 44.8166 18.592C44.0326 19.008 43.1286 19.216 42.1046 19.216C40.9526 19.216 39.8966 18.928 38.9366 18.352C37.9926 17.76 37.2406 16.944 36.6806 15.904C36.1366 14.848 35.8646 13.656 35.8646 12.328ZM46.6886 12.376C46.6886 11.464 46.4966 10.672 46.1126 10C45.7446 9.328 45.2566 8.816 44.6486 8.464C44.0406 8.112 43.3846 7.936 42.6806 7.936C41.9766 7.936 41.3206 8.112 40.7126 8.464C40.1046 8.8 39.6086 9.304 39.2246 9.976C38.8566 10.632 38.6726 11.416 38.6726 12.328C38.6726 13.24 38.8566 14.04 39.2246 14.728C39.6086 15.416 40.1046 15.944 40.7126 16.312C41.3366 16.664 41.9926 16.84 42.6806 16.84C43.3846 16.84 44.0406 16.664 44.6486 16.312C45.2566 15.96 45.7446 15.448 46.1126 14.776C46.4966 14.088 46.6886 13.288 46.6886 12.376ZM54.4342 4.024C53.9382 4.024 53.5222 3.856 53.1862 3.52C52.8502 3.184 52.6822 2.768 52.6822 2.272C52.6822 1.776 52.8502 1.36 53.1862 1.024C53.5222 0.687999 53.9382 0.519999 54.4342 0.519999C54.9142 0.519999 55.3222 0.687999 55.6582 1.024C55.9942 1.36 56.1622 1.776 56.1622 2.272C56.1622 2.768 55.9942 3.184 55.6582 3.52C55.3222 3.856 54.9142 4.024 54.4342 4.024ZM55.7782 5.776V19H53.0422V5.776H55.7782Z" fill="#384449"/>
<path d="M65.0823 2.248C66.8423 2.248 68.3863 2.592 69.7143 3.28C71.0583 3.968 72.0903 4.952 72.8103 6.232C73.5463 7.496 73.9143 8.968 73.9143 10.648C73.9143 12.328 73.5463 13.8 72.8103 15.064C72.0903 16.312 71.0583 17.28 69.7143 17.968C68.3863 18.656 66.8423 19 65.0823 19H59.2263V2.248H65.0823ZM64.9623 16.144C66.7223 16.144 68.0823 15.664 69.0423 14.704C70.0023 13.744 70.4823 12.392 70.4823 10.648C70.4823 8.904 70.0023 7.544 69.0423 6.568C68.0823 5.576 66.7223 5.08 64.9623 5.08H62.5863V16.144H64.9623ZM82.3334 19.216C81.0534 19.216 79.9014 18.936 78.8774 18.376C77.8534 17.8 77.0454 16.992 76.4534 15.952C75.8774 14.912 75.5894 13.712 75.5894 12.352C75.5894 10.992 75.8854 9.792 76.4774 8.752C77.0854 7.712 77.9094 6.912 78.9494 6.352C79.9894 5.776 81.1494 5.488 82.4294 5.488C83.7094 5.488 84.8694 5.776 85.9094 6.352C86.9494 6.912 87.7654 7.712 88.3574 8.752C88.9654 9.792 89.2694 10.992 89.2694 12.352C89.2694 13.712 88.9574 14.912 88.3334 15.952C87.7254 16.992 86.8934 17.8 85.8374 18.376C84.7974 18.936 83.6294 19.216 82.3334 19.216ZM82.3334 16.288C82.9414 16.288 83.5094 16.144 84.0374 15.856C84.5814 15.552 85.0134 15.104 85.3334 14.512C85.6534 13.92 85.8134 13.2 85.8134 12.352C85.8134 11.088 85.4774 10.12 84.8054 9.448C84.1494 8.76 83.3414 8.416 82.3814 8.416C81.4214 8.416 80.6134 8.76 79.9574 9.448C79.3174 10.12 78.9974 11.088 78.9974 12.352C78.9974 13.616 79.3094 14.592 79.9334 15.28C80.5734 15.952 81.3734 16.288 82.3334 16.288ZM90.8701 12.352C90.8701 10.976 91.1501 9.776 91.7101 8.752C92.2701 7.712 93.0461 6.912 94.0381 6.352C95.0301 5.776 96.1661 5.488 97.4461 5.488C99.0941 5.488 100.454 5.904 101.526 6.736C102.614 7.552 103.342 8.704 103.71 10.192H100.086C99.8941 9.616 99.5661 9.168 99.1021 8.848C98.6541 8.512 98.0941 8.344 97.4221 8.344C96.4621 8.344 95.7021 8.696 95.1421 9.4C94.5821 10.088 94.3021 11.072 94.3021 12.352C94.3021 13.616 94.5821 14.6 95.1421 15.304C95.7021 15.992 96.4621 16.336 97.4221 16.336C98.7821 16.336 99.6701 15.728 100.086 14.512H103.71C103.342 15.952 102.614 17.096 101.526 17.944C100.438 18.792 99.0781 19.216 97.4461 19.216C96.1661 19.216 95.0301 18.936 94.0381 18.376C93.0461 17.8 92.2701 17 91.7101 15.976C91.1501 14.936 90.8701 13.728 90.8701 12.352Z" fill="#FF7594"/>
</svg>
