<svg width="12" height="11" viewBox="0 0 12 11" fill="none" xmlns="http://www.w3.org/2000/svg">
<path d="M1.67556 8.69999H9.69572C9.77692 8.69974 9.85651 8.67734 9.92593 8.63522C9.99535 8.59309 10.052 8.53283 10.0897 8.46092C10.1274 8.38901 10.1448 8.30818 10.14 8.22712C10.1352 8.14606 10.1084 8.06785 10.0624 8.0009L6.05234 2.20856C5.88614 1.9684 5.48602 1.9684 5.31938 2.20856L1.3093 8.0009C1.26289 8.06771 1.23567 8.14596 1.2306 8.22716C1.22553 8.30835 1.24282 8.38938 1.28057 8.46144C1.31832 8.5335 1.3751 8.59384 1.44474 8.63589C1.51437 8.67795 1.59421 8.70012 1.67556 8.69999Z" fill="#2E1619"/>
</svg>
